Coordinates
version=1
nRows=43
nColumns=12
inDegrees=yes

Units are S.I. units (second, meters, Newtons, ...)
Angles are in degrees

endheader
time	SC_y	SC_z	SC_x	AC_y	AC_z	AC_x	GH_y	GH_z	GH_yy	EL_x	PS_y
       0.0              -53.84         -4.729          14.13          53.62         -1.032          13.79         -147.3          59.25          37.77          72.18          123.7
   0.02402              -53.84         -4.725          14.13          53.62         -1.035          13.79         -147.3          59.24          37.74          72.17          123.7
   0.04804              -53.84          -4.72          14.13          53.62         -1.037          13.79         -147.3          59.22          37.71          72.16          123.7
   0.07206              -53.84         -4.715          14.13          53.63          -1.04          13.79         -147.3          59.21          37.67          72.16          123.7
   0.09609              -53.83          -4.71          14.12          53.63         -1.043          13.79         -147.3           59.2          37.64          72.15          123.6
    0.1201              -53.83         -4.704          14.12          53.63         -1.046          13.79         -147.3          59.18          37.59          72.14          123.6
    0.1441              -53.83         -4.698          14.12          53.63          -1.05          13.79         -147.2          59.17          37.55          72.14          123.6
    0.1681              -53.83         -4.691          14.11          53.64         -1.053          13.78         -147.2          59.15          37.51          72.13          123.6
    0.1922              -53.82         -4.685          14.11          53.64         -1.057          13.78         -147.2          59.13          37.46          72.12          123.6
    0.2162              -53.82         -4.677          14.11          53.64         -1.061          13.78         -147.1          59.11           37.4          72.11          123.6
    0.2402              -53.82         -4.669           14.1          53.65         -1.065          13.78         -147.1          59.09          37.35           72.1          123.5
    0.2642              -53.81          -4.66           14.1          53.65          -1.07          13.78         -147.1          59.07          37.28          72.09          123.5
    0.2883              -53.81         -4.651           14.1          53.66         -1.075          13.77         -147.0          59.05          37.22          72.08          123.5
    0.3123              -53.81         -4.641          14.09          53.66         -1.081          13.77         -147.0          59.02          37.15          72.07          123.5
    0.3363               -53.8          -4.63          14.09          53.67         -1.087          13.77         -147.0          58.99          37.07          72.06          123.4
    0.3603               -53.8         -4.619          14.08          53.67         -1.093          13.77         -146.9          58.96          36.99          72.04          123.4
    0.3843              -53.79         -4.606          14.07          53.68           -1.1          13.76         -146.9          58.93          36.89          72.03          123.4
    0.4084              -53.79         -4.592          14.07          53.69         -1.108          13.76         -146.8           58.9          36.79          72.01          123.3
    0.4324              -53.78         -4.577          14.06          53.69         -1.117          13.76         -146.8          58.86          36.69          71.99          123.3
    0.4564              -53.77          -4.56          14.05           53.7         -1.126          13.75         -146.7          58.82          36.57          71.97          123.2
    0.4804              -53.76         -4.542          14.05          53.71         -1.136          13.75         -146.6          58.77          36.44          71.95          123.2
    0.5044              -53.76         -4.522          14.04          53.72         -1.147          13.74         -146.5          58.72          36.29          71.93          123.1
    0.5285              -53.75         -4.499          14.03          53.73         -1.159          13.74         -146.5          58.66          36.13           71.9          123.1
    0.5525              -53.74         -4.475          14.01          53.74         -1.173          13.73         -146.4           58.6          35.96          71.87          123.0
    0.5765              -53.72         -4.447           14.0          53.76         -1.188          13.73         -146.3          58.53          35.76          71.84          122.9
    0.6005              -53.71         -4.417          13.99          53.77         -1.205          13.72         -146.1          58.45          35.55           71.8          122.8
    0.6246               -53.7         -4.382          13.97          53.79         -1.224          13.71         -146.0          58.36           35.3          71.76          122.8
    0.6486              -53.68         -4.344          13.95          53.81         -1.245           13.7         -145.9          58.26          35.03          71.71          122.6
    0.6726              -53.66           -4.3          13.93          53.83         -1.269          13.69         -145.7          58.15          34.72          71.66          122.5
    0.6966              -53.64         -4.251          13.91          53.85         -1.296          13.68         -145.5          58.03          34.36           71.6          122.4
    0.7206              -53.62         -4.195          13.88          53.88         -1.327          13.67         -145.3          57.88          33.96          71.53          122.2
    0.7447              -53.59          -4.13          13.85          53.91         -1.363          13.65         -145.0          57.72           33.5          71.45          122.1
    0.7687              -53.56         -4.055          13.82          53.95         -1.404          13.63         -144.7          57.53          32.97          71.36          121.9
    0.7927              -53.52         -3.968          13.78          53.99         -1.452          13.61         -144.4          57.31          32.35          71.26          121.6
    0.8167              -53.48         -3.867          13.73          54.04         -1.508          13.59         -144.0          57.05          31.63          71.14          121.4
    0.8407              -53.43         -3.747          13.68           54.1         -1.574          13.56         -143.6          56.74          30.77          70.99          121.0
    0.8648              -53.37         -3.605          13.61          54.17         -1.653          13.53         -143.0          56.38          29.76          70.82          120.6
    0.8888               -53.3         -3.434          13.53          54.25         -1.747          13.49         -142.4          55.94          28.54          70.62          120.2
    0.9128              -53.21         -3.228          13.44          54.35         -1.861          13.44         -141.6          55.42          27.07          70.37          119.6
    0.9368              -53.11         -2.976          13.32          54.47           -2.0          13.38         -140.6          54.77          25.27          70.07          118.9
    0.9609              -52.98         -2.665          13.17          54.62         -2.172          13.31         -139.4          53.98          23.05          69.69          118.1
    0.9849              -52.81         -2.277          12.99          54.81         -2.386          13.22         -137.9          52.99          20.29          69.22          117.0
     1.009              -52.61         -1.788          12.77          55.05         -2.656           13.1         -136.0          51.74           16.8          68.64          115.7
